<svg width="46" height="46" viewBox="0 0 46 46" fill="none" xmlns="http://www.w3.org/2000/svg">
<rect x="2" y="2" width="40" height="40" rx="10" fill="#00A3FF"/>
<foreignObject x="-4" y="-4" width="50" height="50"><div xmlns="http://www.w3.org/1999/xhtml" style="backdrop-filter:blur(2px);clip-path:url(#bgblur_0_914_722_clip_path);height:100%;width:100%"></div></foreignObject><g filter="url(#filter0_d_914_722)" data-figma-bg-blur-radius="4">
<rect width="40" height="40" rx="10" fill="white" fill-opacity="0.13" shape-rendering="crispEdges"/>
</g>
<path d="M7.75 18.0208C7.75 14.0238 7.75 12.0253 8.22189 11.353C8.69379 10.6807 10.5729 10.0374 14.3311 8.75099L15.0472 8.5059C17.0062 7.8353 17.9858 7.5 19 7.5C20.0142 7.5 20.9938 7.8353 22.9528 8.5059L23.6689 8.75099C27.4271 10.0374 29.3062 10.6807 29.7781 11.353C30.25 12.0253 30.25 14.0238 30.25 18.0208C30.25 18.6246 30.25 19.2793 30.25 19.9892C30.25 27.0368 24.9513 30.4569 21.6268 31.9091C20.725 32.303 20.2741 32.5 19 32.5C17.7259 32.5 17.275 32.303 16.3732 31.9091C13.0487 30.4569 7.75 27.0368 7.75 19.9892C7.75 19.2793 7.75 18.6246 7.75 18.0208Z" stroke="white" stroke-width="1.5"/>
<circle cx="19" cy="16.25" r="2.5" stroke="white" stroke-width="1.5"/>
<path d="M24 23.75C24 25.1307 24 26.25 19 26.25C14 26.25 14 25.1307 14 23.75C14 22.3693 16.2386 21.25 19 21.25C21.7614 21.25 24 22.3693 24 23.75Z" stroke="white" stroke-width="1.5"/>
<defs>
<filter id="filter0_d_914_722" x="-4" y="-4" width="50" height="50" filterUnits="userSpaceOnUse" color-interpolation-filters="sRGB">
<feFlood flood-opacity="0" result="BackgroundImageFix"/>
<feColorMatrix in="SourceAlpha" type="matrix" values="0 0 0 0 0 0 0 0 0 0 0 0 0 0 0 0 0 0 127 0" result="hardAlpha"/>
<feOffset dx="3" dy="3"/>
<feGaussianBlur stdDeviation="1.5"/>
<feComposite in2="hardAlpha" operator="out"/>
<feColorMatrix type="matrix" values="0 0 0 0 0 0 0 0 0 0 0 0 0 0 0 0 0 0 0.1 0"/>
<feBlend mode="normal" in2="BackgroundImageFix" result="effect1_dropShadow_914_722"/>
<feBlend mode="normal" in="SourceGraphic" in2="effect1_dropShadow_914_722" result="shape"/>
</filter>
<clipPath id="bgblur_0_914_722_clip_path" transform="translate(4 4)"><rect width="40" height="40" rx="10"/>
</clipPath></defs>
</svg>
